<?xml version="1.0" encoding="UTF-8" standalone="no"?>
<!DOCTYPE svg PUBLIC "-//W3C//DTD SVG 1.1//EN" "http://www.w3.org/Graphics/SVG/1.1/DTD/svg11.dtd">
<svg xmlns="http://www.w3.org/2000/svg" version="1.1" viewBox="0.00 0.00 74.00 66.00">
<path fill="#337CCF" d="
  M 0.00 64.67
  L 0.00 63.72
  C 6.84 61.54 8.93 56.98 10.49 49.87
  Q 11.87 43.57 13.08 37.04
  A 1.05 1.05 0.0 0 1 14.62 36.32
  L 19.14 38.85
  Q 19.63 39.12 19.72 38.57
  L 20.93 30.61
  A 1.08 1.08 0.0 0 1 22.38 29.76
  L 30.57 32.87
  Q 30.82 32.96 30.83 32.70
  L 31.73 19.53
  A 1.17 1.16 -61.7 0 1 33.82 18.90
  L 37.81 24.15
  Q 38.18 24.64 38.79 24.64
  L 41.11 24.64
  Q 41.68 24.64 41.86 24.09
  Q 43.52 18.78 49.05 17.83
  Q 49.53 17.75 49.73 17.31
  L 56.92 1.23
  A 1.10 1.10 0.0 0 1 59.02 1.71
  Q 59.00 2.42 58.51 3.50
  Q 55.37 10.50 52.67 16.50
  A 1.61 1.61 0.0 0 0 55.27 18.30
  C 61.09 12.53 63.41 7.29 72.18 5.53
  A 1.32 1.32 0.0 0 1 73.67 6.35
  Q 73.89 6.91 73.57 7.34
  C 73.30 7.69 67.16 9.86 65.96 10.61
  C 62.59 12.70 60.17 17.03 56.86 19.89
  Q 56.43 20.26 56.57 20.80
  Q 58.23 27.58 51.74 29.98
  Q 51.21 30.18 51.52 30.64
  C 54.35 34.89 58.70 39.85 64.33 37.64
  A 1.06 1.06 0.0 0 1 65.38 39.45
  C 60.84 43.03 53.55 38.02 51.16 34.28
  Q 48.68 30.40 45.07 29.89
  Q 44.52 29.82 44.25 30.30
  L 42.39 33.69
  Q 42.13 34.15 42.44 34.57
  C 45.52 38.87 49.28 47.78 55.94 44.32
  Q 56.48 44.04 56.81 44.56
  L 57.23 45.25
  Q 57.64 45.92 56.96 46.29
  C 48.33 51.08 44.74 41.63 40.64 36.15
  Q 40.34 35.74 39.88 35.93
  L 35.65 37.64
  Q 35.07 37.88 35.38 38.42
  C 38.55 43.88 41.58 48.08 44.60 55.07
  A 1.16 1.13 88.3 0 0 45.21 55.66
  L 47.79 56.68
  A 0.76 0.74 13.7 0 1 48.26 57.44
  C 48.17 58.44 47.32 58.91 46.36 58.69
  Q 43.23 57.97 42.52 56.19
  Q 39.98 49.81 35.99 43.88
  Q 35.41 43.01 35.16 44.02
  Q 33.77 49.80 28.53 53.50
  C 19.39 59.95 15.39 49.21 18.81 42.18
  A 0.67 0.67 0.0 0 0 18.54 41.31
  L 15.65 39.65
  Q 15.03 39.29 14.90 40.00
  C 12.84 51.10 12.34 61.19 2.16 65.41
  C 1.33 65.75 0.33 65.55 0.00 64.67
  Z
  M 33.50 26.65
  Q 33.43 26.99 33.54 27.38
  Q 33.73 28.01 34.21 27.57
  L 35.62 26.29
  Q 36.04 25.91 35.72 25.44
  L 34.45 23.55
  A 0.36 0.36 0.0 0 0 33.80 23.70
  Q 33.66 24.71 33.67 25.69
  Q 33.67 25.92 33.50 26.65
  Z
  M 22.83 33.43
  L 22.51 35.72
  A 0.29 0.29 0.0 0 0 22.97 35.99
  L 25.70 34.02
  A 0.33 0.32 36.2 0 0 25.61 33.45
  L 23.81 32.83
  A 0.75 0.74 13.2 0 0 22.83 33.43
  Z"
/>
</svg>
